<svg width="156" height="160" viewBox="0 0 156 160" fill="none" xmlns="http://www.w3.org/2000/svg">
<path d="M100.468 52.5996C100.468 62.8684 95.9013 98.2669 95.9013 98.2669M100.468 52.5996C100.468 25.1992 91.3346 16.0658 77.6344 2.36558C63.9342 16.0658 54.8008 25.1992 54.8008 52.5996M100.468 52.5996L113.489 61.2801C122.472 67.2689 127.868 77.3513 127.868 88.1489L127.868 98.8387C127.868 103.13 123.762 106.227 119.636 105.048L95.9013 98.2669M95.9013 98.2669H59.3675M54.8008 52.5996L59.3675 98.2669M54.8008 52.5996L41.7798 61.2802C32.7963 67.2692 27.4004 77.3517 27.4004 88.1485L27.4004 98.8384C27.4004 103.129 31.5074 106.227 35.6328 105.048L59.3675 98.2669M77.6367 43.4684V52.6019M77.6344 157.634L90.0278 139.045C93.443 133.922 92.7676 127.1 88.4137 122.746L86.7679 121.101C81.7235 116.056 73.5452 116.056 68.501 121.101L66.8552 122.746C62.5014 127.1 61.8259 133.922 65.2415 139.045L77.6344 157.634Z" stroke="#DA643F" stroke-width="3" stroke-linecap="round" stroke-linejoin="round"/>
</svg>
