<svg width="155" height="25" viewBox="0 0 155 25" fill="none" xmlns="http://www.w3.org/2000/svg">
<path fillRule="evenodd" clipRule="evenodd" d="M76.6109 11.0344L75.4052 10.7694L74.0773 8.46927L75.1415 7.85486L76.2711 9.81175L82.6905 6.10537L81.204 3.53086L78.8696 4.8786L78.2552 3.81418L80.8299 2.32788L82.1692 2.74473L84.151 6.17762L83.7511 6.91186L76.6109 11.0344ZM71.9359 2.3823L74.4763 0.915661L74.9224 0.657959L75.9368 0.987687L79.5638 7.26994L78.4996 7.88436L75.0907 1.97985L72.5846 3.4266L74.0316 5.9325L72.9674 6.54692L71.144 3.38887L71.1806 2.81836L71.9359 2.3823V2.3823Z" fill="#FF55DA"/>
<path fillRule="evenodd" clipRule="evenodd" d="M79.2606 17.447L81.084 20.6053L81.5964 20.8586L82.3517 20.4226L84.8919 18.956L85.338 18.6982L85.5596 17.6551L84.1899 15.2825L83.1257 15.8967L84.2775 17.8918L81.7716 19.3387L80.3246 16.8326L79.2149 14.9102L78.0851 12.9536L80.591 11.5068L79.9766 10.4426L77.196 12.0479L76.8226 13.2248L78.1507 15.5247L79.2606 17.447V17.447ZM79.9889 15.2873L80.6033 16.3515L79.9889 15.2873ZM80.6033 16.3515L86.8458 12.7476L87.1543 11.3792L85.1722 7.94634L84.3362 7.92554L81.0819 9.80444L81.6963 10.8686L84.5045 9.24743L85.9911 11.8219L79.9889 15.2873L80.6033 16.3515V16.3515Z" fill="#FF55DA"/>
<path fillRule="evenodd" clipRule="evenodd" d="M74.3961 13.6643L75.6018 13.9293L76.9297 16.2294L75.8655 16.8439L74.7359 14.887L68.3164 18.5933L69.8029 21.1679L72.1374 19.8201L72.7518 20.8845L70.177 22.3708L68.8378 21.954L66.856 18.5211L67.2559 17.7869L74.3961 13.6643V13.6643ZM79.0711 22.3164L76.5306 23.783L76.0845 24.0408L75.0702 23.711L71.4431 17.4288L72.5073 16.8144L75.9162 22.7189L78.4224 21.2721L76.9754 18.7662L78.0396 18.1518L79.8629 21.3099L79.8263 21.8804L79.0711 22.3164Z" fill="#FF55DA"/>
<path fillRule="evenodd" clipRule="evenodd" d="M71.7465 7.25172L69.9229 4.09345L69.4105 3.84009L68.6552 4.27615L66.115 5.74278L65.6689 6.00048L65.4473 7.04364L66.817 9.41624L67.8812 8.80205L66.7295 6.80697L69.2354 5.36L70.6823 7.86614L71.792 9.78849L72.9218 11.7452L70.4159 13.1919L71.0304 14.2561L73.8109 12.6509L74.1843 11.474L72.8562 9.17408L71.7465 7.25172V7.25172ZM71.018 9.41144L70.4036 8.34724L71.018 9.41144ZM70.4036 8.34724L64.1614 11.9512L63.8527 13.3195L65.8347 16.7524L66.6707 16.7732L69.925 14.8943L69.3106 13.8301L66.5024 15.4513L65.0159 12.8768L71.018 9.41144L70.4036 8.34724V8.34724Z" fill="#FF55DA"/>
<path d="M9.4714 13.5098C9.4714 14.0238 9.42841 14.3743 9.34266 14.5575C9.23771 14.799 8.65348 15.1689 7.58631 15.6635C6.70619 16.0685 6.00923 16.3449 5.49886 16.4968C5.08224 16.6175 4.6304 16.6877 4.14358 16.7033C4.12026 19.0905 4.10471 20.4576 4.09693 20.808C4.01896 23.0591 3.85547 24.2779 3.60623 24.4611C3.38419 24.6168 3.06498 24.6986 2.64813 24.6986C1.86542 24.6986 1.31641 24.4688 1.00474 24.0131C0.736062 23.6276 0.494595 20.9248 0.272564 15.9128C0.089635 11.8819 0 8.85603 0 6.84244C0 6.33229 0.0233234 6.01308 0.0699704 5.88458C0.144057 5.69364 0.529582 5.51849 1.22288 5.35865C1.79911 5.23015 2.25872 5.16406 2.60149 5.16406C3.09608 5.16406 3.42718 5.21071 3.59456 5.30034C3.83603 5.44051 3.97231 5.7364 3.99175 6.19601C4.59542 6.0364 5.27706 5.95454 6.03644 5.95454C7.47335 5.95454 8.36536 6.28176 8.71567 6.93596C8.89883 7.27095 9.07398 8.32623 9.24159 10.0984C9.39343 11.6249 9.4714 12.762 9.4714 13.5098ZM6.21937 12.1506C6.21937 11.6249 6.12585 11.0251 5.94292 10.3476C5.70145 9.48303 5.39779 9.04674 5.0317 9.04674C4.84854 9.04674 4.54488 9.13249 4.12026 9.29987C4.15135 10.9435 4.16325 12.2949 4.16325 13.3618C5.53407 13.0426 6.21937 12.6374 6.21937 12.1506V12.1506Z" fill="#FF55DA"/>
<path d="M16.8903 18.3234C16.8903 18.6195 16.8279 19.0128 16.6994 19.5074C16.5476 20.068 16.3802 20.4147 16.2009 20.5393C16.0219 20.6639 15.6284 20.7264 15.021 20.7264C14.3433 20.7264 13.4865 20.6328 12.4545 20.4419C11.1459 20.2123 10.4176 19.9318 10.2735 19.597C10.1839 19.3827 10.1373 18.9581 10.1373 18.3195C10.1373 17.3536 10.1917 16.1074 10.2969 14.577C10.3671 13.5878 10.5422 11.7496 10.8228 9.05843C11.142 5.93903 11.3485 4.33062 11.4381 4.23321C11.6755 3.98008 12.2208 3.85547 13.0815 3.85547C14.2459 3.85547 14.9353 4.01141 15.1573 4.32285C15.2351 4.42804 15.2703 4.58764 15.2703 4.79024C15.2703 5.29261 15.1418 6.47639 14.8845 8.34204C14.6314 9.97377 14.2653 12.4273 13.7785 15.6985C13.7007 16.232 13.6619 16.6683 13.6619 17.0111C13.6619 17.1201 13.7826 17.1707 14.0161 17.1707C14.0863 17.1707 14.1914 17.1668 14.3316 17.159C14.4718 17.1512 14.577 17.1474 14.643 17.1474C15.8076 17.1474 16.4851 17.2759 16.6761 17.5251C16.8201 17.7236 16.8903 17.9886 16.8903 18.3234V18.3234Z" fill="#FF55DA"/>
<path d="M26.8444 15.6324C26.8444 15.9516 26.8289 16.197 26.7978 16.3644C26.7004 16.8708 26.3459 17.3613 25.7423 17.8287C25.1388 18.2961 24.5701 18.5298 24.0367 18.5298C23.6784 18.5298 23.433 18.0624 23.2928 17.1279C22.0622 17.4665 20.9328 17.638 19.9045 17.638C18.9192 17.638 18.265 17.4004 17.9495 16.9214C17.6341 16.4423 17.4745 15.3635 17.4745 13.6929C17.4745 12.7348 17.5445 12.1039 17.6808 11.7962C17.7938 11.5469 18.343 11.1458 19.3242 10.6007C20.1849 10.1139 20.8315 9.79834 21.2637 9.65429C21.6687 9.51023 22.1713 9.41282 22.7825 9.36617C22.6073 8.35754 22.1907 7.85129 21.5363 7.85129C21.2637 7.85129 20.5862 8.24847 19.4996 9.04284C18.4169 9.83744 17.7041 10.2346 17.3616 10.2346C16.9719 10.2346 16.6488 9.89186 16.3918 9.21045C16.1776 8.66121 16.0724 8.15495 16.0724 7.69145C16.0724 7.56294 16.0879 7.4461 16.1193 7.34091C16.2478 6.91263 17.1162 6.2662 18.7208 5.40163C20.2862 4.5565 21.33 4.13599 21.844 4.13599C22.4166 4.13599 23.2149 4.51763 24.2429 5.27701C25.2399 6.01307 25.8669 6.65561 26.1239 7.20463C26.603 8.23681 26.8444 11.0484 26.8444 15.6324V15.6324ZM23.0786 14.4212L22.9851 12.5946C21.587 12.9763 20.8859 13.3657 20.8859 13.759C20.8859 14.0473 21.0339 14.2927 21.3222 14.4912C21.587 14.6588 21.8713 14.7404 22.1751 14.7404C22.3581 14.7404 22.6578 14.6352 23.0786 14.4212Z" fill="#FF55DA"/>
<path d="M38.2903 9.90753C38.2903 10.5384 38.0955 11.9015 37.7061 14.0006C37.305 16.1543 36.9856 17.4705 36.748 17.9496C36.5962 18.269 36.3392 18.5455 35.9731 18.7714C35.607 19.0012 35.2448 19.1141 34.8787 19.1141C34.4465 19.1141 34.2284 18.5921 34.2284 17.5524C34.2284 16.9098 34.2712 15.9517 34.353 14.6744C34.4388 13.3969 34.4776 12.439 34.4776 11.8004C34.4776 10.819 34.2869 10.3283 33.8973 10.3283C33.6597 10.3283 33.0288 10.9514 32.0047 12.2015C31.9111 16.3684 31.7243 18.5532 31.444 18.7597C31.1401 18.9973 30.7973 19.1141 30.4157 19.1141C29.7187 19.1141 29.2122 18.8805 28.9008 18.417C28.6555 18.0586 28.4412 16.5282 28.2622 13.8332C28.1103 11.6755 28.0323 9.99328 28.0323 8.78983C28.0323 8.3771 28.0557 8.10453 28.1023 7.96825C28.1842 7.73067 28.5853 7.51253 29.298 7.31382C29.8939 7.13867 30.3768 7.05292 30.7468 7.05292C31.2725 7.05292 31.5997 7.16199 31.7282 7.38402C31.7982 7.4892 31.8645 7.83951 31.9345 8.43152C33.2198 7.40734 34.0455 6.89331 34.4116 6.89331C34.9956 6.89331 35.7746 7.23219 36.748 7.90971C37.7763 8.61468 38.2903 9.24556 38.2903 9.79069V9.90753V9.90753Z" fill="#FF55DA"/>
<path d="M48.0382 9.40893C48.0382 10.0126 47.9993 10.4878 47.9136 10.8383C47.7462 11.6055 47.197 12.1975 46.2585 12.6063C45.8572 12.7895 45.0318 13.0268 43.7814 13.3152C43.3182 13.4203 42.9052 13.4942 42.5391 13.5333C42.5471 14.4678 42.5977 14.9974 42.6873 15.1182C42.8041 15.2702 43.0884 15.348 43.5441 15.348C43.7193 15.348 43.8516 15.3402 43.9452 15.3246C44.0348 15.3091 44.1281 15.1728 44.2294 14.9119C44.3268 14.608 44.467 14.4018 44.6501 14.2966C44.9227 14.129 45.5303 14.0473 46.4648 14.0473C47.2009 14.0473 47.5708 14.2536 47.5708 14.6743C47.5708 14.9624 47.4112 15.5894 47.0918 16.5475C46.7648 17.5289 46.5194 18.1171 46.3518 18.3078C46.235 18.4363 45.6352 18.5492 44.5488 18.6505C43.6882 18.7246 43.0104 18.7635 42.5158 18.7635C41.3476 18.7635 40.6309 18.7011 40.3739 18.5803C40.0661 18.4363 39.7275 17.673 39.3459 16.2983C39.0031 15.0482 38.8316 14.1642 38.8316 13.646C38.8316 13.0152 38.9642 11.7456 39.2329 9.83355C39.521 7.79275 39.7586 6.61674 39.9493 6.30507C40.1014 6.06361 40.7478 5.76383 41.8888 5.41718C42.7884 5.13295 43.5363 4.93814 44.1359 4.83295C44.7395 4.72777 45.2652 4.67334 45.7248 4.67334C45.9974 4.67334 46.1922 4.68889 46.3052 4.71999C46.8894 4.87182 47.3488 5.55346 47.676 6.76079C47.9175 7.66035 48.0382 8.54436 48.0382 9.40893V9.40893ZM44.7629 9.14025C44.7629 8.3692 44.5372 7.98757 44.0815 7.98757C43.5244 7.98757 43.1156 8.19382 42.8469 8.60289C42.7106 8.80915 42.6171 9.57654 42.5627 10.9083C43.7659 10.5577 44.432 10.2852 44.5644 10.0867C44.6968 9.88797 44.7629 9.57242 44.7629 9.14025V9.14025Z" fill="#FF55DA"/>
<path d="M57.5288 5.35092C57.5288 5.58849 57.4744 5.89238 57.3692 6.26236C57.2523 6.68287 57.1277 6.94377 56.9914 7.05284C56.8318 7.18135 56.3955 7.24378 55.6789 7.24378C55.2895 7.24378 54.9545 7.23989 54.6742 7.22411L54.0705 11.6835C53.8798 13.0815 53.7863 13.9344 53.7863 14.2459C53.7863 14.3705 53.9459 14.4757 54.2653 14.5653C54.4757 14.6042 54.6897 14.6472 54.904 14.6938C55.4571 14.8301 55.7802 14.9119 55.8737 14.943C56.3217 15.0716 56.6059 15.1962 56.7305 15.3208C56.9487 15.5389 57.0575 15.9245 57.0575 16.4696C57.0575 17.307 56.894 17.8521 56.567 18.1013C56.4033 18.2301 55.9867 18.2961 55.3245 18.2961C54.612 18.2961 53.7202 18.2104 52.6569 18.0352C51.2861 17.8132 50.5112 17.5406 50.328 17.2134C50.2345 17.046 50.1917 16.5981 50.1917 15.8659C50.1917 14.0044 50.363 10.9669 50.7058 6.75307C50.2461 6.66344 49.8723 6.57768 49.5764 6.50383C48.9883 6.35977 48.6535 6.23904 48.5717 6.1494C48.4354 5.97402 48.3652 5.72478 48.3652 5.39779C48.3652 5.16021 48.4159 4.85632 48.5131 4.48246C48.6339 4.06584 48.7701 3.79716 48.9183 3.68031C49.0662 3.56346 49.4984 3.50493 50.2151 3.50493C50.4721 3.50493 50.733 3.50881 51.0019 3.52459C51.0913 2.51573 51.2314 1.4488 51.4224 0.331102C51.6444 0.109071 52.1351 0 52.8945 0C53.2215 0 53.65 0.0466461 54.1835 0.136282C54.8379 0.24924 55.2118 0.385524 55.3012 0.537355C55.3636 0.64254 55.3947 0.790482 55.3947 0.981415C55.3947 1.58897 55.3012 2.59371 55.1182 3.99175C55.5779 4.08527 55.9595 4.16713 56.2709 4.24488C56.8746 4.38916 57.2135 4.50601 57.2873 4.5993C57.4472 4.8019 57.5288 5.05503 57.5288 5.35092V5.35092Z" fill="#FF55DA"/>
<path d="M99.2819 18.3234C99.2819 18.6195 99.2195 19.0128 99.091 19.5074C98.9392 20.068 98.7718 20.4147 98.5925 20.5393C98.4135 20.6639 98.02 20.7264 97.4126 20.7264C96.7349 20.7264 95.8781 20.6328 94.8461 20.4419C93.5375 20.2123 92.8092 19.9318 92.6652 19.597C92.5755 19.3827 92.5289 18.9581 92.5289 18.3195C92.5289 17.3536 92.5833 16.1074 92.6885 14.577C92.7587 13.5878 92.9338 11.7496 93.2144 9.05843C93.5336 5.93903 93.7401 4.33062 93.8297 4.23321C94.0671 3.98008 94.6124 3.85547 95.4731 3.85547C96.6375 3.85547 97.3269 4.01141 97.5489 4.32285C97.6267 4.42804 97.6619 4.58764 97.6619 4.79024C97.6619 5.29261 97.5334 6.47639 97.2761 8.34204C97.023 9.97377 96.6569 12.4273 96.1701 15.6985C96.0923 16.232 96.0535 16.6683 96.0535 17.0111C96.0535 17.1201 96.1742 17.1707 96.4077 17.1707C96.4779 17.1707 96.583 17.1668 96.7232 17.159C96.8634 17.1512 96.9686 17.1474 97.0347 17.1474C98.1992 17.1474 98.8767 17.2759 99.0677 17.5251C99.2117 17.7236 99.2819 17.9886 99.2819 18.3234V18.3234Z" fill="#FF55DA"/>
<path d="M107.713 9.41686C107.713 13.6542 107.546 16.0336 107.211 16.5438C106.876 17.0578 106.362 17.3148 105.661 17.3148C104.945 17.3148 104.524 17.0112 104.395 16.4075C103.768 16.9798 103.274 17.2643 102.9 17.2643C102.351 17.2643 101.704 17.0462 100.96 16.606C100.213 16.1699 99.7375 15.7025 99.5351 15.2079C99.3675 14.7991 99.2001 13.6892 99.0327 11.8782C98.8887 10.2892 98.8146 9.10931 98.8146 8.34215C98.8146 7.92919 98.8457 7.6333 98.9042 7.45014C99.0366 7.07628 99.461 6.7454 100.185 6.4454C100.809 6.19616 101.362 6.07154 101.848 6.07154C102.3 6.07154 102.58 6.29357 102.693 6.7454C102.74 6.91667 102.764 7.32552 102.764 7.96417C102.764 8.53674 102.725 9.38576 102.654 10.5151C102.58 11.6445 102.545 12.4935 102.545 13.0661C102.545 13.2335 102.643 13.4555 102.838 13.7358C103.032 14.02 103.208 14.1604 103.367 14.1604C103.449 14.1604 103.679 13.8255 104.053 13.1555C103.862 10.7838 103.768 8.90672 103.768 7.52423C103.768 6.59723 103.827 6.05988 103.948 5.91582C104.138 5.69379 104.532 5.58472 105.124 5.58472C105.513 5.58472 105.953 5.65103 106.448 5.77954C107.063 5.93137 107.441 6.12619 107.577 6.35988C107.667 6.51948 107.713 7.53978 107.713 9.41686V9.41686Z" fill="#FF55DA"/>
<path d="M118.334 16.4541C118.334 16.5048 118.326 16.5515 118.31 16.5903C117.929 17.494 117.305 17.9495 116.437 17.9495C115.935 17.9495 114.509 16.6489 112.161 14.0474C112.067 15.6206 112.021 16.4307 112.013 16.4774C111.919 17.6342 111.806 18.3974 111.67 18.7635C111.207 19.0439 110.872 19.184 110.665 19.184C110.003 19.184 109.481 18.9426 109.104 18.4635C108.835 18.1249 108.703 15.313 108.703 10.0321C108.703 9.20251 108.73 7.69539 108.784 5.51465C108.843 2.94426 108.905 1.62785 108.964 1.56566C109.283 1.23844 109.968 1.07495 111.02 1.07495C111.787 1.07495 112.262 1.1918 112.445 1.42938C112.55 1.56566 112.605 2.10302 112.605 3.03779C112.605 4.11638 112.581 5.31594 112.535 6.64012C114.295 4.73948 115.401 3.78939 115.857 3.78939C116.725 3.78939 117.348 4.25655 117.726 5.19132C117.742 5.23019 117.749 5.27707 117.749 5.3276C117.749 5.74034 116.57 7.45004 114.201 10.4645C116.955 13.8992 118.334 15.8973 118.334 16.4541V16.4541Z" fill="#FF55DA"/>
<path d="M127.602 9.41686C127.602 13.6542 127.435 16.0336 127.1 16.5438C126.765 17.0578 126.251 17.3148 125.55 17.3148C124.834 17.3148 124.413 17.0112 124.284 16.4075C123.657 16.9798 123.163 17.2643 122.789 17.2643C122.24 17.2643 121.593 17.0462 120.849 16.606C120.102 16.1699 119.626 15.7025 119.424 15.2079C119.257 14.7991 119.089 13.6892 118.922 11.8782C118.778 10.2892 118.704 9.10931 118.704 8.34215C118.704 7.92919 118.735 7.6333 118.793 7.45014C118.926 7.07628 119.35 6.7454 120.074 6.4454C120.698 6.19616 121.251 6.07154 121.738 6.07154C122.189 6.07154 122.469 6.29357 122.582 6.7454C122.629 6.91667 122.653 7.32552 122.653 7.96417C122.653 8.53674 122.614 9.38576 122.544 10.5151C122.469 11.6445 122.434 12.4935 122.434 13.0661C122.434 13.2335 122.532 13.4555 122.727 13.7358C122.921 14.02 123.097 14.1604 123.256 14.1604C123.338 14.1604 123.568 13.8255 123.942 13.1555C123.751 10.7838 123.657 8.90672 123.657 7.52423C123.657 6.59723 123.716 6.05988 123.837 5.91582C124.027 5.69379 124.421 5.58472 125.013 5.58472C125.402 5.58472 125.842 5.65103 126.337 5.77954C126.952 5.93137 127.33 6.12619 127.466 6.35988C127.556 6.51948 127.602 7.53978 127.602 9.41686V9.41686Z" fill="#FF55DA"/>
<path d="M138.223 16.4541C138.223 16.5048 138.215 16.5515 138.199 16.5903C137.818 17.494 137.194 17.9495 136.326 17.9495C135.824 17.9495 134.398 16.6489 132.05 14.0474C131.956 15.6206 131.91 16.4307 131.902 16.4774C131.808 17.6342 131.695 18.3974 131.559 18.7635C131.096 19.0439 130.761 19.184 130.554 19.184C129.892 19.184 129.37 18.9426 128.993 18.4635C128.724 18.1249 128.592 15.313 128.592 10.0321C128.592 9.20251 128.619 7.69539 128.673 5.51465C128.732 2.94426 128.794 1.62785 128.853 1.56566C129.172 1.23844 129.857 1.07495 130.909 1.07495C131.676 1.07495 132.151 1.1918 132.334 1.42938C132.439 1.56566 132.494 2.10302 132.494 3.03779C132.494 4.11638 132.47 5.31594 132.424 6.64012C134.184 4.73948 135.29 3.78939 135.746 3.78939C136.614 3.78939 137.237 4.25655 137.615 5.19132C137.631 5.23019 137.638 5.27707 137.638 5.3276C137.638 5.74034 136.458 7.45004 134.09 10.4645C136.844 13.8992 138.223 15.8973 138.223 16.4541V16.4541Z" fill="#FF55DA"/>
<path d="M147.491 9.41686C147.491 13.6542 147.324 16.0336 146.989 16.5438C146.654 17.0578 146.14 17.3148 145.439 17.3148C144.723 17.3148 144.302 17.0112 144.173 16.4075C143.546 16.9798 143.052 17.2643 142.678 17.2643C142.129 17.2643 141.482 17.0462 140.738 16.606C139.991 16.1699 139.515 15.7025 139.313 15.2079C139.145 14.7991 138.978 13.6892 138.811 11.8782C138.667 10.2892 138.593 9.10931 138.593 8.34215C138.593 7.92919 138.624 7.6333 138.682 7.45014C138.815 7.07628 139.239 6.7454 139.963 6.4454C140.587 6.19616 141.14 6.07154 141.626 6.07154C142.078 6.07154 142.358 6.29357 142.471 6.7454C142.518 6.91667 142.542 7.32552 142.542 7.96417C142.542 8.53674 142.503 9.38576 142.433 10.5151C142.358 11.6445 142.323 12.4935 142.323 13.0661C142.323 13.2335 142.421 13.4555 142.616 13.7358C142.81 14.02 142.986 14.1604 143.145 14.1604C143.227 14.1604 143.457 13.8255 143.831 13.1555C143.64 10.7838 143.546 8.90672 143.546 7.52423C143.546 6.59723 143.605 6.05988 143.726 5.91582C143.916 5.69379 144.31 5.58472 144.902 5.58472C145.291 5.58472 145.731 5.65103 146.226 5.77954C146.841 5.93137 147.219 6.12619 147.355 6.35988C147.445 6.51948 147.491 7.53978 147.491 9.41686V9.41686Z" fill="#FF55DA"/>
<path d="M155 18.3234C155 18.6195 154.938 19.0128 154.809 19.5074C154.657 20.068 154.49 20.4147 154.311 20.5393C154.132 20.6639 153.738 20.7264 153.131 20.7264C152.453 20.7264 151.596 20.6328 150.564 20.4419C149.256 20.2123 148.527 19.9318 148.383 19.597C148.294 19.3827 148.247 18.9581 148.247 18.3195C148.247 17.3536 148.301 16.1074 148.407 14.577C148.477 13.5878 148.652 11.7496 148.932 9.05843C149.252 5.93903 149.458 4.33062 149.548 4.23321C149.785 3.98008 150.331 3.85547 151.191 3.85547C152.356 3.85547 153.045 4.01141 153.267 4.32285C153.345 4.42804 153.38 4.58764 153.38 4.79024C153.38 5.29261 153.251 6.47639 152.994 8.34204C152.741 9.97377 152.375 12.4273 151.888 15.6985C151.81 16.232 151.772 16.6683 151.772 17.0111C151.772 17.1201 151.892 17.1707 152.126 17.1707C152.196 17.1707 152.301 17.1668 152.441 17.159C152.581 17.1512 152.687 17.1474 152.753 17.1474C153.917 17.1474 154.595 17.2759 154.786 17.5251C154.93 17.7236 155 17.9886 155 18.3234V18.3234Z" fill="#FF55DA"/>
</svg>
