<svg width="60" height="60" viewBox="0 0 60 60" fill="none" xmlns="http://www.w3.org/2000/svg">
<g clip-path="url(#clip0_212_1208)">
<path d="M30 0.5C46.2898 0.5 59.5 13.7102 59.5 30C59.5 46.2898 46.2898 59.5 30 59.5C13.7102 59.5 0.5 46.2898 0.5 30C0.5 13.7102 13.7102 0.5 30 0.5Z" stroke="black"/>
<path d="M24.2454 36.8233L23.7486 36.8798C24.2454 36.8233 24.2454 36.8232 24.2454 36.8231L24.2453 36.8224L24.245 36.8197L24.2437 36.8088L24.2388 36.7657L24.2198 36.5976L24.1474 35.9594C24.0851 35.4096 23.9963 34.6242 23.89 33.6816C23.6775 31.7963 23.3953 29.2827 23.1164 26.7687C22.8376 24.2546 22.5623 21.7409 22.3635 19.8554C22.264 18.9124 22.1839 18.1281 22.1321 17.5799C22.1196 17.4474 22.1088 17.3295 22.0998 17.2269L39.9802 16.113C40.0009 16.2512 40.0257 16.42 40.0541 16.6168C40.1424 17.2272 40.2653 18.1009 40.4112 19.1507C40.703 21.25 41.0865 24.0506 41.4681 26.852C41.8497 29.6534 42.2294 32.4551 42.5138 34.5566C42.656 35.6073 42.7743 36.4829 42.857 37.0959L42.9531 37.8073L42.9784 37.9948L42.9848 38.0428L42.986 38.0516C43.1578 39.7166 41.8996 41.7198 39.5994 42.773C38.2688 43.3788 36.8958 43.5092 35.7602 43.2527C34.6249 42.9963 33.7561 42.3642 33.3451 41.4611C32.9344 40.5585 33.0298 39.4888 33.5838 38.4644C34.138 37.4396 35.14 36.4898 36.4709 35.8838C38.2428 35.0774 40.0858 35.121 41.3409 35.7754L42.2044 36.2256L42.067 35.2615L39.8905 19.9894L39.8253 19.5321L39.3643 19.5609L23.4997 20.5525L22.9747 20.5853L23.0341 21.1079L25.138 39.6197C25.3239 41.282 24.0577 43.277 21.776 44.3207C20.4454 44.9266 19.0723 45.0569 17.9367 44.8005C16.8015 44.5441 15.9327 43.9119 15.5217 43.0088C15.111 42.1062 15.2063 41.0365 15.7603 40.0121C16.3145 38.9874 17.3165 38.0375 18.6474 37.4316C20.4193 36.6252 22.2624 36.6688 23.5174 37.3231L24.3516 37.7581L24.2454 36.8233Z" stroke="black"/>
</g>
<defs>
<clipPath id="clip0_212_1208">
<rect width="60" height="60" fill="white"/>
</clipPath>
</defs>
</svg>
