<svg width="60" height="60" viewBox="0 0 60 60" fill="none" xmlns="http://www.w3.org/2000/svg">
<circle cx="30" cy="30" r="29.5" stroke="black"/>
<path d="M42.5 15.6226V15.6221C42.4988 14.5292 42.0641 13.4815 41.2913 12.7087C40.5185 11.9359 39.4708 11.5012 38.3779 11.5H38.3774L21.6226 11.5L21.622 11.5C20.5292 11.5014 19.4816 11.9361 18.7088 12.7088C17.9361 13.4816 17.5014 14.5292 17.5 15.622V15.6226L17.5 44.6038L17.5 44.6045C17.5015 45.6972 17.9362 46.7448 18.7089 47.5175C19.4816 48.2902 20.5292 48.7249 21.622 48.7264H21.6226H38.3774H38.378C39.4708 48.7251 40.5184 48.2903 41.2912 47.5176C42.0639 46.7449 42.4986 45.6972 42.5 44.6044V44.6038V15.6226ZM38.783 15.6263V37.7642H21.217V15.6273C21.2195 15.5193 21.2635 15.4164 21.3399 15.3399C21.4164 15.2635 21.5193 15.2195 21.6273 15.217H38.3737C38.4816 15.2189 38.5846 15.2627 38.661 15.339C38.7373 15.4154 38.781 15.5184 38.783 15.6263ZM21.217 41.4811H38.783V44.5999C38.781 44.7079 38.7372 44.8109 38.6608 44.8872C38.5845 44.9636 38.4815 45.0074 38.3736 45.0094H21.6273C21.5193 45.0069 21.4164 44.9629 21.3399 44.8865C21.2635 44.81 21.2195 44.7071 21.217 44.5991V41.4811Z" stroke="black"/>
<path d="M38.6627 15.3391C38.7391 15.4155 38.7828 15.5185 38.7848 15.6264V37.7642H21.2188V15.6274C21.2212 15.5194 21.2653 15.4165 21.3417 15.34C21.4181 15.2636 21.5211 15.2196 21.6291 15.2171H38.3755C38.4834 15.219 38.5864 15.2628 38.6627 15.3391Z" stroke="black"/>
<path d="M38.6608 44.8866C38.5845 44.963 38.4815 45.0067 38.3735 45.0088H30.5728C30.8303 44.9216 31.067 44.7759 31.2629 44.58C31.5979 44.245 31.786 43.7908 31.786 43.3171C31.786 42.8434 31.5979 42.3891 31.2629 42.0542C31.0487 41.8399 30.7857 41.6858 30.5 41.6024V41.4805H38.783V44.5993C38.781 44.7072 38.7372 44.8102 38.6608 44.8866Z" stroke="black"/>
<path d="M28.7389 44.58C28.9347 44.7759 29.1714 44.9216 29.429 45.0088H21.6291C21.5211 45.0063 21.4181 44.9623 21.3417 44.8858C21.2653 44.8094 21.2212 44.7064 21.2188 44.5984V41.4805H29.5018V41.6025C29.2161 41.6858 28.9531 41.8399 28.7389 42.0542C28.4039 42.3891 28.2157 42.8434 28.2157 43.3171C28.2157 43.7908 28.4039 44.245 28.7389 44.58Z" stroke="black"/>
</svg>
