<svg width="155" height="155" viewBox="0 0 155 155" fill="none" xmlns="http://www.w3.org/2000/svg">
<g clip-path="url(#clip0_318_3233)">
<path d="M35.3808 50.5433C27.0199 50.5433 20.2178 57.3455 20.2178 65.7064V75.815C20.2178 78.6062 22.4807 80.8695 25.2722 80.8695H45.4897C48.2809 80.8695 50.5442 78.6065 50.5442 75.815V65.7064C50.5439 57.3455 43.7421 50.5433 35.3808 50.5433ZM40.435 70.7608H30.3264V65.7064C30.3264 62.9194 32.5939 60.6519 35.3808 60.6519C38.1678 60.6519 40.4353 62.9194 40.4353 65.7064L40.435 70.7608Z" fill="black"/>
<path d="M149.946 124.674C136.219 124.674 126.19 117.029 121.717 106.804C112.697 86.1848 92.9879 72.4383 70.7608 70.9058V35.3803C70.7608 34.0933 70.2535 32.7816 69.2844 31.8104C69.2826 31.8086 69.2814 31.8071 69.2796 31.8053L38.9547 1.48037C36.9811 -0.493457 33.7806 -0.493457 31.8068 1.48037L1.48128 31.8056C1.47946 31.8074 1.47825 31.8089 1.47644 31.8107C0.517373 32.7722 0 34.0655 0 35.3803V149.946C0 152.737 2.26294 155 5.05445 155H25.272C28.0632 155 30.3264 152.737 30.3264 149.946V141.522H40.435V149.946C40.435 152.737 42.698 155 45.4895 155H65.707C68.4982 155 70.7614 152.737 70.7614 149.946V101.38C74.3446 101.883 77.7622 103.028 80.87 104.721V149.946C80.87 152.737 83.133 155 85.9245 155C88.7157 155 90.979 152.737 90.979 149.946V113.72C94.6172 118.877 94.7171 122.745 101.088 131.16V149.946C101.088 152.737 103.35 155 106.142 155C108.934 155 111.196 152.737 111.196 149.946V141.599C121.813 150.19 134.824 155 149.946 155C152.738 155 155.001 152.737 155.001 149.946V129.728C155 126.937 152.737 124.674 149.946 124.674ZM35.3806 12.2026L53.5044 30.3261H17.2565L35.3806 12.2026ZM40.4347 131.413H30.3261V121.304H40.4347V131.413ZM40.4347 111.196H30.3261V101.087H40.4347V111.196ZM60.6522 144.891H50.5436V96.0325C50.5436 93.2413 48.2807 90.978 45.4892 90.978H25.2717C22.4804 90.978 20.2172 93.241 20.2172 96.0325V144.891H10.1086V40.4347H60.6522C60.6522 43.4672 60.6522 139.787 60.6522 144.891ZM144.891 144.719C126.686 143.208 110.606 131.844 103.197 114.905C97.3942 101.643 84.9152 92.6694 70.7608 91.1939V81.0414C88.9664 82.5523 105.046 93.9173 112.455 110.856C118.255 124.11 130.709 133.088 144.891 134.567V144.719Z" fill="black"/>
</g>
<defs>
<clipPath id="clip0_318_3233">
<rect width="155" height="155" fill="white"/>
</clipPath>
</defs>
</svg>
