<svg width="78" height="78" viewBox="0 0 78 78" fill="none" xmlns="http://www.w3.org/2000/svg">
<g clip-path="url(#clip0_1009_771)">
<path d="M76.6438 70.2032H74.0448C65.9881 70.2032 61.0503 68.514 61.0503 59.8075C61.0503 47.2955 48.8861 40.9247 41.5584 39.0063V29.92H48.0558C48.8354 29.92 49.3552 29.4003 49.3552 28.6206C49.3552 24.9822 46.4964 22.1233 42.8578 22.1233H41.5584V18.2249H42.8578C43.3776 18.2249 43.8974 17.8351 44.0273 17.3153C44.2873 16.7956 44.0273 16.2757 43.6375 15.8859L22.8462 0.292378C22.3265 -0.0974594 21.8066 -0.0974594 21.2868 0.292378L0.495393 15.8859C0.105555 16.1458 -0.0243402 16.7955 0.105555 17.3153C0.23545 17.8352 0.755335 18.2249 1.27507 18.2249H2.57448V50.7113C2.57448 51.491 3.09421 52.0108 3.87389 52.0108H5.17329V76.7006C5.17329 77.4803 5.69303 78 6.4727 78H11.6708C12.4505 78 12.9702 77.4803 12.9702 76.7006V52.0109H14.2696H15.569V58.5083V66.305V74.1018V76.7007C15.569 77.4804 16.0888 78.0001 16.8684 78.0001C17.6481 78.0001 18.1678 77.4804 18.1678 76.7007V75.4013H25.9646V76.7007C25.9646 77.4804 26.4843 78.0001 27.264 78.0001C28.0437 78.0001 28.5634 77.4804 28.5634 76.7007V74.1018V66.305V58.5083V52.0109H29.8628H31.1622V76.7006C31.1622 77.4803 31.682 78 32.4616 78H37.6594C38.4391 78 38.9588 77.4803 38.9588 76.7006V52.0109H40.2582C41.0379 52.0109 41.5577 51.4912 41.5577 50.7115V47.2462C45.3228 48.4308 53.2528 51.8798 53.2528 59.8078C53.2528 68.1243 56.8912 78.0003 74.0441 78.0003H76.6431C77.4227 78.0003 77.9425 77.4806 77.9425 76.7009V71.5031C77.9432 70.7231 77.4235 70.2032 76.6438 70.2032ZM42.8578 24.7223C44.5471 24.7223 45.9765 25.7619 46.4963 27.3212H41.5583V24.7223H42.8578ZM22.0665 2.89135L38.9594 15.6261H5.17345L22.0665 2.89135ZM10.3714 75.4012H7.77242V52.0109H10.3714V75.4012ZM25.9649 65.0054H18.1681V59.8077H25.9649V65.0054ZM18.1681 67.6044H25.9649V72.8022H18.1681V67.6044ZM25.9649 57.2087H18.1681V52.0109H25.9649V57.2087ZM27.2643 49.4119H16.8686H15.5692V35.1178C15.5692 31.4794 18.4279 28.6205 22.0665 28.6205C25.705 28.6205 28.5639 31.4793 28.5639 35.1178V49.4119H27.2643ZM36.3605 75.4012H33.7615V52.0109H36.3605V75.4012ZM38.9594 49.4119H37.66H32.4622H31.1628V35.1178C31.1628 30.0499 27.1346 26.0217 22.0667 26.0217C16.9988 26.0217 12.9705 30.0499 12.9705 35.1178V49.4119H11.6708H6.47301H5.1736V18.2249H38.9594V23.4227V28.6205V40.0557V45.5134V49.4119ZM75.3443 75.4012H74.0448C61.83 75.4012 55.8524 70.3333 55.8524 59.8077C55.8524 49.6719 45.4566 45.7735 41.5583 44.604V41.7452C48.1855 43.5645 58.4512 49.1521 58.4512 59.8077C58.4512 71.2429 66.3778 72.8022 74.0447 72.8022H75.3441V75.4012H75.3443Z" fill="#9B66FF"/>
</g>
<defs>
<clipPath id="clip0_1009_771">
<rect width="78" height="78" fill="white"/>
</clipPath>
</defs>
</svg>
