<svg width="155" height="155" viewBox="0 0 155 155" fill="none" xmlns="http://www.w3.org/2000/svg">
<g clip-path="url(#clip0_749_400)">
<path d="M40.4351 72.2608H41.935L41.9351 70.7609L41.9354 65.7065V65.7064C41.9354 62.091 38.9963 59.1519 35.3809 59.1519C31.7655 59.1519 28.8265 62.091 28.8265 65.7064V70.7608V72.2608H30.3265H40.4351ZM21.7179 65.7064C21.7179 58.1739 27.8484 52.0433 35.3809 52.0433C42.9137 52.0433 49.044 58.1739 49.0443 65.7064C49.0443 65.7064 49.0443 65.7064 49.0443 65.7064V75.815C49.0443 77.778 47.4527 79.3695 45.4898 79.3695H25.2723C23.3093 79.3695 21.7179 77.7778 21.7179 75.815V65.7064Z" stroke="#B793FC" stroke-width="3"/>
<path d="M69.2608 72.306V70.9058V35.3803C69.2608 34.4777 68.9021 33.5516 68.2237 32.8711L69.2608 72.306ZM69.2608 72.306L70.6577 72.4023C92.3302 73.8965 111.548 87.3005 120.343 107.405L121.717 106.804M69.2608 72.306L121.717 106.804M121.717 106.804L120.343 107.405C125.046 118.156 135.602 126.174 149.946 126.174C151.908 126.174 153.5 127.765 153.501 129.728C153.501 129.728 153.501 129.728 153.501 129.729V149.946C153.501 151.909 151.909 153.5 149.946 153.5C135.163 153.5 122.487 148.806 112.14 140.433L109.696 138.455V141.599V149.946C109.696 151.909 108.105 153.5 106.142 153.5C104.179 153.5 102.588 151.908 102.588 149.946V131.16V130.656L102.283 130.254C99.1741 126.147 97.6063 123.168 96.3615 120.57C96.1535 120.136 95.9523 119.707 95.7523 119.281C94.7582 117.162 93.7965 115.111 92.2046 112.855L89.479 108.992V113.72V149.946C89.479 151.909 87.8873 153.5 85.9245 153.5C83.9615 153.5 82.37 151.908 82.37 149.946V104.721V103.83L81.5875 103.403C78.3235 101.626 74.7338 100.423 70.9699 99.8946L69.2614 99.6548V101.38V149.946C69.2614 151.909 67.6698 153.5 65.707 153.5H45.4895C43.5264 153.5 41.935 151.908 41.935 149.946V141.522V140.022H40.435H30.3264H28.8264V141.522V149.946C28.8264 151.909 27.2348 153.5 25.272 153.5H5.05445C3.09137 153.5 1.5 151.909 1.5 149.946V35.3803C1.5 34.4566 1.8641 33.5465 2.53768 32.8708M121.717 106.804L2.53768 32.8708M37.894 2.54103L37.8939 2.54095C36.5062 1.15306 34.2555 1.15294 32.8674 2.54104L2.55519 32.853C2.54985 32.8585 2.544 32.8645 2.53768 32.8708M37.894 2.54103L2.53692 32.8716C2.53718 32.8713 2.53743 32.8711 2.53768 32.8708M37.894 2.54103L68.2057 32.8528M37.894 2.54103L68.2057 32.8528M68.2057 32.8528C68.2109 32.8581 68.2165 32.8638 68.2226 32.8699L68.2057 32.8528ZM2.54177 32.8664L2.54193 32.8662C2.54188 32.8663 2.54182 32.8664 2.54177 32.8664ZM36.4412 11.1419L35.3806 10.0813L34.3199 11.1419L16.1958 29.2654L13.6351 31.8261H17.2565H53.5044H57.1257L54.565 29.2654L36.4412 11.1419ZM40.4347 132.913H41.9347V131.413V121.304V119.804H40.4347H30.3261H28.8261V121.304V131.413V132.913H30.3261H40.4347ZM40.4347 112.696H41.9347V111.196V101.087V99.5869H40.4347H30.3261H28.8261V101.087V111.196V112.696H30.3261H40.4347ZM60.6522 146.391H62.1522V144.891V144.86V144.827V144.792V144.755V144.716V144.674V144.631V144.586V144.538V144.489V144.438V144.384V144.329V144.272V144.212V144.151V144.088V144.023V143.955V143.886V143.815V143.743V143.668V143.591V143.513V143.432V143.35V143.266V143.179V143.092V143.002V142.91V142.817V142.722V142.625V142.526V142.425V142.323V142.219V142.113V142.005V141.896V141.784V141.671V141.557V141.44V141.322V141.203V141.081V140.958V140.833V140.707V140.579V140.449V140.317V140.184V140.049V139.913V139.775V139.636V139.495V139.352V139.208V139.062V138.914V138.765V138.615V138.463V138.309V138.154V137.998V137.84V137.68V137.519V137.356V137.192V137.027V136.86V136.691V136.522V136.35V136.178V136.004V135.828V135.651V135.473V135.293V135.112V134.93V134.746V134.561V134.375V134.187V133.998V133.808V133.616V133.423V133.229V133.033V132.836V132.638V132.439V132.238V132.037V131.834V131.629V131.424V131.217V131.009V130.8V130.59V130.378V130.166V129.952V129.737V129.521V129.304V129.086V128.866V128.646V128.424V128.202V127.978V127.753V127.527V127.3V127.072V126.843V126.613V126.382V126.15V125.917V125.682V125.447V125.211V124.974V124.736V124.497V124.257V124.016V123.774V123.532V123.288V123.043V122.798V122.552V122.304V122.056V121.807V121.557V121.307V121.055V120.803V120.549V120.295V120.041V119.785V119.529V119.271V119.013V118.755V118.495V118.235V117.974V117.712V117.45V117.186V116.922V116.658V116.393V116.127V115.86V115.593V115.325V115.056V114.787V114.517V114.246V113.975V113.703V113.431V113.158V112.884V112.61V112.335V112.06V111.784V111.508V111.231V110.954V110.676V110.397V110.118V109.839V109.559V109.278V108.997V108.716V108.434V108.152V107.869V107.586V107.302V107.018V106.734V106.449V106.164V105.879V105.593V105.306V105.02V104.733V104.445V104.158V103.87V103.581V103.293V103.004V102.715V102.425V102.135V101.845V101.555V101.265V100.974V100.683V100.392V100.1V99.8086V99.5168V99.2247V98.9325V98.6402V98.3476V98.0549V97.762V97.469V97.1759V96.8826V96.5893V96.2958V96.0022V95.7085V95.4148V95.1209V94.827V94.5331V94.2391V93.945V93.6509V93.3568V93.0627V92.7686V92.4744V92.1803V91.8862V91.5921V91.298V91.004V90.71V90.4161V90.1223V89.8285V89.5348V89.2412V88.9477V88.6543V88.361V88.0678V87.7748V87.4819V87.1891V86.8965V86.6041V86.3119V86.0198V85.7279V85.4362V85.1447V84.8534V84.5624V84.2716V83.981V83.6907V83.4006V83.1108V82.8212V82.532V82.243V81.9543V81.6659V81.3778V81.0901V80.8027V80.5156V80.2289V79.9425V79.6565V79.3708V79.0855V78.8007V78.5162V78.2321V77.9484V77.6651V77.3823V77.0999V76.818V76.5365V76.2555V75.9749V75.6948V75.4152V75.1361V74.8575V74.5794V74.3018V74.0248V73.7482V73.4723V73.1969V72.922V72.6477V72.374V72.1009V71.8283V71.5564V71.2851V71.0143V70.7443V70.4748V70.206V69.9378V69.6703V69.4035V69.1374V68.8719V68.6071V68.343V68.0796V67.817V67.5551V67.2939V67.0334V66.7737V66.5147V66.2566V65.9991V65.7425V65.4867V65.2316V64.9774V64.724V64.4714V64.2197V63.9687V63.7187V63.4694V63.2211V62.9736V62.727V62.4813V62.2365V61.9926V61.7496V61.5076V61.2664V61.0262V60.787V60.5487V60.3114V60.075V59.8397V59.6053V59.3719V59.1395V58.9081V58.6778V58.4485V58.2202V57.993V57.7668V57.5417V57.3176V57.0947V56.8728V56.652V56.4323V56.2138V55.9963V55.78V55.5648V55.3508V55.1379V54.9262V54.7157V54.5063V54.2981V54.0911V53.8854V53.6808V53.4774V53.2753V53.0744V52.8748V52.6764V52.4793V52.2834V52.0888V51.8955V51.7035V51.5128V51.3234V51.1354V50.9486V50.7632V50.5791V50.3964V50.2151V50.0351V49.8565V49.6792V49.5034V49.329V49.156V48.9844V48.8142V48.6454V48.4781V48.3123V48.1479V47.985V47.8235V47.6635V47.5051V47.3481V47.1926V47.0387V46.8862V46.7354V46.586V46.4382V46.292V46.1473V46.0042V45.8627V45.7227V45.5844V45.4477V45.3126V45.1791V45.0472V44.917V44.7885V44.6616V44.5363V44.4127V44.2909V44.1707V44.0522V43.9354V43.8203V43.7069V43.5953V43.4854V43.3773V43.2709V43.1663V43.0634V42.9624V42.8631V42.7656V42.67V42.5761V42.4841V42.3938V42.3055V42.219V42.1343V42.0515V41.9705V41.8915V41.8143V41.7391V41.6657V41.5942V41.5247V41.4571V41.3914V41.3277V41.2659V41.2061V41.1483V41.0924V41.0386V40.9867V40.9368V40.889V40.8431V40.7993V40.7575V40.7178V40.6801V40.6445V40.6109V40.5795V40.5501V40.5228V40.4976V40.4745V40.4536V40.4347V38.9347H60.6522H10.1086H8.6086V40.4347V144.891V146.391H10.1086H20.2172H21.7172V144.891V96.0325C21.7172 94.0695 23.3088 92.478 25.2717 92.478H45.4892C47.4522 92.478 49.0436 94.0696 49.0436 96.0325V144.891V146.391H50.5436H60.6522ZM144.767 146.214L146.391 146.349V144.719V134.567V133.215L145.047 133.075C131.398 131.652 119.411 123.011 113.829 110.254C106.198 92.8081 89.6364 81.1028 70.8849 79.5465L69.2608 79.4117V81.0414V91.1939V92.5456L70.6053 92.6858C84.2275 94.1059 96.2383 102.743 101.823 115.507C109.454 132.953 126.016 144.658 144.767 146.214Z" stroke="#B793FC" stroke-width="3"/>
</g>
<defs>
<clipPath id="clip0_749_400">
<rect width="155" height="155" fill="white"/>
</clipPath>
</defs>
</svg>
