<svg width="160" height="160" viewBox="0 0 160 160" fill="none" xmlns="http://www.w3.org/2000/svg">
<path d="M80 0C35.8881 0 0 35.8881 0 80C0 124.112 35.8881 160 80 160C124.112 160 160 124.112 160 80C160 35.8881 124.112 0 80 0ZM80 151.351C60.4019 151.351 42.6249 143.407 29.7172 130.573C24.5625 125.447 20.1868 119.54 16.7797 113.048C11.5904 103.162 8.64877 91.9191 8.64877 80C8.64877 40.6568 40.6568 8.64877 80 8.64877C98.6613 8.64877 115.669 15.8532 128.397 27.6231C134.996 33.7248 140.445 41.0524 144.374 49.2434C148.845 58.5613 151.351 68.9934 151.351 80C151.351 119.343 119.343 151.351 80 151.351Z" fill="#0A0316"/>
<path d="M53.2464 71.3519C58.023 71.3519 61.8952 67.4797 61.8952 62.7031C61.8952 57.9265 58.023 54.0543 53.2464 54.0543C48.4698 54.0543 44.5977 57.9265 44.5977 62.7031C44.5977 67.4797 48.4698 71.3519 53.2464 71.3519Z" fill="#0A0316"/>
<path d="M106.758 71.3519C111.535 71.3519 115.407 67.4797 115.407 62.7031C115.407 57.9265 111.535 54.0543 106.758 54.0543C101.982 54.0543 98.1094 57.9265 98.1094 62.7031C98.1094 67.4797 101.982 71.3519 106.758 71.3519Z" fill="#0A0316"/>
<path d="M90.0931 102.162V109.73H98.7418V102.162H119.823V109.73H128.472V85.9457H119.823V93.5133H98.7418V85.9457H90.0931V93.5133H69.0117V85.9457H60.3629V93.5133H39.2816V85.9457H30.6328V109.73H39.2816V102.162H60.3629V109.73H69.0117V102.162H90.0931Z" fill="#0A0316"/>
</svg>
