<svg width="60" height="60" viewBox="0 0 60 60" fill="none" xmlns="http://www.w3.org/2000/svg">
<circle cx="30" cy="30" r="29.5" stroke="black"/>
<path d="M43.8047 36.967L43.9965 36.9212V36.7239V23.8396V23.6423L43.8047 23.5965C42.1279 23.1956 40.8045 21.8723 40.4036 20.1954L40.3578 20.0036H40.1605H19.8395H19.6422L19.5964 20.1954C19.1955 21.8723 17.8721 23.1956 16.1953 23.5965L16.0035 23.6423V23.8396V36.7239V36.9212L16.1953 36.967C17.8721 37.3679 19.1955 38.6913 19.5964 40.3681L19.6422 40.5599H19.8395H40.1605H40.3578L40.4036 40.3681C40.8045 38.6913 42.1279 37.3679 43.8047 36.967ZM42.0316 19.1268C42.0316 20.6939 43.3061 21.9684 44.8732 21.9684C45.3574 21.9684 45.75 22.3609 45.75 22.8451V37.7185C45.75 38.2026 45.3574 38.5951 44.8732 38.5951C43.3061 38.5951 42.0316 39.8696 42.0316 41.4367C42.0316 41.9209 41.639 42.3135 41.155 42.3135H18.8451C18.361 42.3135 17.9684 41.9209 17.9684 41.4367C17.9684 39.8696 16.6939 38.5951 15.1268 38.5951C14.6426 38.5951 14.25 38.2026 14.25 37.7185V22.8451C14.25 22.3609 14.6426 21.9684 15.1268 21.9684C16.6939 21.9684 17.9684 20.6939 17.9684 19.1268C17.9684 18.6426 18.361 18.25 18.8451 18.25H41.155C41.639 18.25 42.0316 18.6426 42.0316 19.1268Z" stroke="black" stroke-width="0.5"/>
<path d="M22.5815 25.5816H19.7752C19.2909 25.5816 18.8984 25.1891 18.8984 24.7049C18.8984 24.2208 19.2911 23.8281 19.7752 23.8281H22.5815C23.0656 23.8281 23.4582 24.2207 23.4582 24.7049C23.4582 25.1891 23.0657 25.5816 22.5815 25.5816Z" stroke="black" stroke-width="0.5"/>
<path d="M28.4642 25.5816H25.658C25.1737 25.5816 24.7812 25.1891 24.7812 24.7049C24.7812 24.2208 25.1739 23.8281 25.658 23.8281H28.4642C28.9484 23.8281 29.341 24.2208 29.341 24.7049C29.341 25.189 28.9484 25.5816 28.4642 25.5816Z" stroke="black" stroke-width="0.5"/>
<path d="M34.3431 25.5816H31.5369C31.0527 25.5816 30.6602 25.1891 30.6602 24.7049C30.6602 24.2208 31.0528 23.8281 31.5369 23.8281H34.3431C34.8273 23.8281 35.2199 24.2208 35.2199 24.7049C35.2199 25.189 34.8273 25.5816 34.3431 25.5816Z" stroke="black" stroke-width="0.5"/>
<path d="M37.4196 23.8281H40.226C40.7102 23.8281 41.1027 24.2207 41.1027 24.7049C41.1027 25.189 40.7101 25.5816 40.226 25.5816H37.4196C36.9355 25.5816 36.543 25.1891 36.543 24.7049C36.543 24.2207 36.9355 23.8281 37.4196 23.8281Z" stroke="black" stroke-width="0.5"/>
<path d="M19.7752 34.9824H22.5815C23.0657 34.9824 23.4582 35.3749 23.4582 35.8591C23.4582 36.3433 23.0656 36.7359 22.5815 36.7359H19.7752C19.2911 36.7359 18.8984 36.3433 18.8984 35.8591C18.8984 35.375 19.291 34.9824 19.7752 34.9824Z" stroke="black" stroke-width="0.5"/>
<path d="M25.658 34.9827H28.4642C28.9485 34.9827 29.341 35.3751 29.341 35.8593C29.341 36.3435 28.9484 36.7361 28.4642 36.7361H25.658C25.1739 36.7361 24.7812 36.3435 24.7812 35.8593C24.7812 35.3752 25.1739 34.9827 25.658 34.9827Z" stroke="black" stroke-width="0.5"/>
<path d="M31.5369 34.9824H34.3431C34.8274 34.9824 35.2199 35.3749 35.2199 35.8591C35.2199 36.3433 34.8273 36.7359 34.3431 36.7359H31.5369C31.0528 36.7359 30.6602 36.3433 30.6602 35.8591C30.6602 35.375 31.0528 34.9824 31.5369 34.9824Z" stroke="black" stroke-width="0.5"/>
<path d="M37.4196 34.9824H40.226C40.7102 34.9824 41.1027 35.3749 41.1027 35.8591C41.1027 36.3433 40.7101 36.7359 40.226 36.7359H37.4196C36.9355 36.7359 36.543 36.3433 36.543 35.8591C36.543 35.375 36.9355 34.9824 37.4196 34.9824Z" stroke="black" stroke-width="0.5"/>
<path d="M21.289 32.4987L21.1053 32.3291C21.0551 32.3835 20.9929 32.4128 20.9015 32.4128C20.808 32.4128 20.7447 32.3829 20.6939 32.3279L20.6939 32.3278C20.6516 32.282 20.6109 32.1945 20.6109 32.0304V29.085V28.835H20.3609H19.5434C19.4068 28.835 19.3412 28.8017 19.3109 28.7743L19.3109 28.7743C19.2727 28.7398 19.25 28.6956 19.25 28.6219C19.25 28.5445 19.2739 28.501 19.3127 28.4678L19.15 28.278M21.289 32.4987L21.105 32.3294C21.1457 32.2852 21.1865 32.198 21.1865 32.0304V29.085V28.835H21.4365H22.2541C22.3901 28.835 22.4578 28.8021 22.4903 28.7733L22.4907 28.773C22.5306 28.7379 22.5532 28.6942 22.5532 28.6219C22.5532 28.5494 22.5307 28.5045 22.4906 28.4681L22.6586 28.283L22.4908 28.4683C22.4596 28.44 22.3923 28.4062 22.2541 28.4062H19.5434C19.4158 28.4062 19.3481 28.4375 19.3126 28.4679L19.15 28.278M21.289 32.4987C21.3869 32.3923 21.4365 32.2348 21.4365 32.0304V29.335V29.085H21.6865H22.2541C22.4272 29.085 22.5625 29.0432 22.6559 28.9607C22.7536 28.8747 22.8032 28.7607 22.8032 28.6219C22.8032 28.484 22.7546 28.37 22.6586 28.283C22.5658 28.199 22.4296 28.1562 22.2541 28.1562H19.5434C19.3767 28.1562 19.2443 28.1973 19.15 28.278M21.289 32.4987C21.1885 32.6076 21.0581 32.6628 20.9015 32.6628C20.743 32.6628 20.6114 32.6072 20.5101 32.4974C20.4111 32.3901 20.3609 32.2329 20.3609 32.0304L19.1432 28.9597C19.0482 28.8737 19 28.76 19 28.6219C19 28.4789 19.0504 28.3633 19.15 28.278" stroke="black" stroke-width="0.5"/>
<path d="M23.4544 32.3263L23.4545 32.3265C23.5068 32.3838 23.5689 32.4124 23.6562 32.4124C23.7523 32.4124 23.8165 32.3817 23.8666 32.3275L23.4544 32.3263ZM23.4544 32.3263C23.4113 32.2792 23.3711 32.1914 23.3711 32.03V28.7135C23.3711 28.5519 23.4109 28.4647 23.4529 28.4184C23.5035 28.3631 23.5657 28.334 23.6562 28.334C23.753 28.334 23.8171 28.3645 23.867 28.4181L23.8671 28.4181M23.4544 32.3263L23.8671 28.4181M23.8671 28.4181C23.9087 28.4628 23.9495 28.549 23.9495 28.7135V32.03C23.9495 32.194 23.9089 32.2816 23.8666 32.3275L23.8671 28.4181Z" stroke="black" stroke-width="0.5"/>
<path d="M26.2692 32.5964C26.4587 32.6402 26.6709 32.6624 26.9007 32.6624C27.2075 32.6624 27.4812 32.612 27.7142 32.5127C27.9478 32.4134 28.1431 32.2813 28.2948 32.1202C28.445 31.9608 28.5573 31.7951 28.6282 31.6274C28.6998 31.4582 28.7362 31.297 28.7362 31.1486C28.7362 31.012 28.688 30.8959 28.5931 30.8037C28.499 30.7119 28.3846 30.6654 28.2531 30.6654C28.0981 30.6654 27.9811 30.7156 27.9054 30.8143C27.8444 30.8938 27.793 30.9963 27.7541 31.1156C27.6761 31.3282 27.5607 31.4906 27.4108 31.5983C27.2617 31.7052 27.0746 31.7595 26.8548 31.7595C26.6515 31.7595 26.473 31.7113 26.3237 31.6162M26.2692 32.5964L26.3256 32.3528C26.3255 32.3528 26.3255 32.3528 26.3255 32.3528M26.2692 32.5964L26.3255 32.3528M26.2692 32.5964C26.0768 32.5519 25.8994 32.4813 25.7415 32.3866C25.5838 32.2921 25.4368 32.166 25.3045 32.0116C25.187 31.8716 25.0862 31.7143 25.0043 31.5432C24.9222 31.372 24.8598 31.1872 24.819 30.9937C24.7784 30.8013 24.7578 30.5944 24.7578 30.3789C24.7578 30.0277 24.81 29.7084 24.9127 29.4298C25.0163 29.1483 25.167 28.9036 25.3607 28.7028C25.5546 28.5018 25.7852 28.3467 26.0458 28.2414C26.3053 28.137 26.585 28.084 26.8776 28.084C27.2347 28.084 27.5582 28.1567 27.8391 28.3002L25.9381 29.1889C26.1746 28.8857 26.4937 28.737 26.8834 28.737C27.1175 28.737 27.3356 28.7914 27.5168 28.9162C27.6934 29.0375 27.8371 29.2171 27.952 29.4326L27.9522 29.433C28.0212 29.563 28.0729 29.6317 28.1074 29.6643L28.1079 29.6648C28.1239 29.6799 28.1629 29.7046 28.2588 29.7046C28.3166 29.7046 28.3626 29.6857 28.4076 29.6369L28.4076 29.6369C28.4551 29.5854 28.4747 29.5327 28.4747 29.4716C28.4747 29.3373 28.4221 29.1741 28.2876 28.9838C28.1634 28.8087 27.9779 28.6519 27.7253 28.5229L27.7253 28.5229C27.4841 28.3996 27.2005 28.334 26.8776 28.334C26.6157 28.334 26.3678 28.3814 26.1392 28.4733C25.9109 28.5655 25.7099 28.7009 25.5407 28.8763C25.3728 29.0503 25.2399 29.2646 25.1474 29.5161L25.1473 29.5163C25.0564 29.7627 25.0078 30.052 25.0078 30.3789C25.0078 30.5787 25.0269 30.7682 25.0636 30.9421L25.0636 30.9421C25.1005 31.1168 25.1566 31.2826 25.2298 31.4351L25.2298 31.4353C25.3028 31.5878 25.392 31.7269 25.4951 31.8498C25.6116 31.9855 25.738 32.0931 25.87 32.1722L25.8701 32.1723C26.004 32.2526 26.1568 32.3138 26.3255 32.3528M26.3255 32.3528C26.4935 32.3916 26.6866 32.4124 26.9007 32.4124C27.1808 32.4124 27.4199 32.3664 27.6162 32.2827L27.6164 32.2826C27.8228 32.1949 27.988 32.0813 28.1128 31.9488L28.1129 31.9487C28.2469 31.8066 28.3407 31.6653 28.3979 31.53L28.398 31.5299C28.4596 31.3845 28.4862 31.2566 28.4862 31.1486C28.4862 31.0772 28.4636 31.0264 28.4189 30.983L28.4185 30.9826C28.3712 30.9365 28.3195 30.9154 28.2531 30.9154C28.1549 30.9154 28.1207 30.9444 28.1039 30.9664L28.1037 30.9666C28.0637 31.0187 28.024 31.0941 27.9917 31.1931L27.9889 31.2018L27.9888 31.2017C27.8975 31.4503 27.7557 31.6584 27.5566 31.8013L27.5564 31.8015C27.3571 31.9444 27.1164 32.0095 26.8548 32.0095C26.6112 32.0095 26.3846 31.9514 26.1894 31.8271C26.1895 31.8271 26.1895 31.8271 26.1895 31.8271L26.3237 31.6162M26.3237 31.6162L26.1893 31.827M26.3237 31.6162C26.1757 31.5221 26.0589 31.3756 25.9763 31.1807C25.8908 30.9783 25.8475 30.7181 25.8475 30.4077C25.8475 29.9456 25.9443 29.5873 26.1352 29.3427L26.1893 31.827M26.1893 31.827C25.9904 31.7005 25.8443 31.5098 25.7461 31.2782L25.746 31.2779C25.6433 31.0348 25.5975 30.7387 25.5975 30.4077C25.5975 29.916 25.6997 29.4944 25.9381 29.1889L26.1893 31.827ZM27.7313 29.5502C27.8047 29.6884 27.8716 29.7855 27.9357 29.846C28.0116 29.9181 28.1202 29.9546 28.2588 29.9546C28.3888 29.9546 28.5006 29.9048 28.5913 29.8064L27.7313 29.5502ZM27.7313 29.5502C27.6292 29.3585 27.5094 29.2143 27.3751 29.1222L27.7313 29.5502Z" stroke="black" stroke-width="0.5"/>
<path d="M33.0229 31.8941L32.7969 32.001C32.8325 32.0763 32.8469 32.1437 32.8469 32.2023C32.8469 32.2543 32.8297 32.2993 32.7801 32.3459C32.7399 32.3833 32.6784 32.4122 32.5736 32.4122C32.4698 32.4122 32.4032 32.3888 32.3606 32.36L32.3605 32.3599C32.3047 32.322 32.254 32.2693 32.2109 32.1992C32.1594 32.1152 32.1141 32.0398 32.075 31.9724L32.0752 31.9723L32.0683 31.9616L31.1377 30.5303L30.9731 30.2772L30.7551 30.4861L30.1902 31.0277L30.1132 31.1015V31.2081V32.0301C30.1132 32.1975 30.0717 32.2839 30.0303 32.3277L30.0302 32.3278C29.9785 32.3825 29.9139 32.4125 29.8199 32.4125C29.7732 32.4125 29.7264 32.4006 29.6785 32.3732L29.6781 32.3729C29.6338 32.3477 29.6011 32.315 29.5778 32.2749C29.5596 32.2374 29.5476 32.1941 29.5433 32.1399L29.5433 32.1395C29.5381 32.0752 29.5352 31.9798 29.5352 31.8435V28.7135C29.5352 28.5505 29.5742 28.4624 29.6146 28.4164L29.4265 28.2516L29.6144 28.4166C29.6595 28.3652 29.7201 28.334 29.8199 28.334C29.9171 28.334 29.9813 28.3646 30.031 28.4179L30.0312 28.4182C30.0725 28.4624 30.1132 28.5484 30.1132 28.7134V29.9091V30.531L30.5437 30.0821L32.0238 28.5385L32.0238 28.5385C32.106 28.4527 32.166 28.3999 32.2095 28.369L32.2095 28.3689C32.2332 28.3521 32.2766 28.334 32.3553 28.334C32.4526 28.334 32.514 28.3621 32.5579 28.4037C32.6072 28.4506 32.6286 28.5012 32.6286 28.567C32.6286 28.6338 32.5975 28.7247 32.4791 28.8378C32.479 28.838 32.4789 28.8381 32.4787 28.8382L31.513 29.7531L31.3567 29.9012L31.4799 30.0777L32.619 31.7095L32.619 31.7095L32.62 31.7109C32.7033 31.8285 32.7599 31.923 32.797 32.0012L33.0229 31.8941ZM33.0229 31.8941C32.9775 31.7985 32.9124 31.691 32.824 31.5664L32.2202 32.5668C32.3135 32.6301 32.4324 32.6622 32.5736 32.6622C32.7289 32.6622 32.8557 32.6173 32.9508 32.5285C33.0477 32.4377 33.0969 32.3279 33.0969 32.2023C33.0969 32.1018 33.072 31.9981 33.0229 31.8941ZM30.2139 28.2475C30.1127 28.1389 29.9801 28.084 29.8199 28.084C29.6565 28.084 29.5243 28.1402 29.4265 28.2516C29.3328 28.3586 29.2852 28.5141 29.2852 28.7135V31.8435C29.2852 31.9818 29.2881 32.0853 29.2941 32.1597L30.2139 28.2475ZM30.2139 28.2475C30.3131 28.3538 30.3632 28.5105 30.3632 28.7134V29.5478L30.1828 29.736L30.3632 29.9091H30.6132V29.6483L31.8433 28.3655C31.9303 28.2748 32.0027 28.2092 32.0647 28.1651C32.1406 28.1112 32.2382 28.084 32.3553 28.084C32.5071 28.084 32.6333 28.1305 32.7302 28.2225C32.8286 28.3162 32.8786 28.4321 32.8786 28.567C32.8786 28.7229 32.8021 28.875 32.6514 29.019L30.2139 28.2475ZM29.5544 32.5902C29.6382 32.6381 29.7276 32.6625 29.8199 32.6625C29.978 32.6625 30.1098 32.6075 30.2119 32.4996C30.3124 32.3933 30.3632 32.2354 30.3632 32.0301V31.2081L30.7444 30.8427L30.7186 30.8029L30.9281 30.6666L31.1011 30.8471L31.0669 30.88L31.8587 32.0979C31.8992 32.1677 31.9458 32.2451 31.9979 32.3301L29.5544 32.5902Z" stroke="black" stroke-width="0.5"/>
<path d="M33.9204 28.5502L33.9204 28.5502C33.8968 28.6001 33.8789 28.6746 33.8789 28.7914V31.9557C33.8789 32.134 33.9226 32.2192 33.9612 32.2582C33.9989 32.2963 34.0834 32.3409 34.2644 32.3409H36.5815C36.7029 32.3409 36.7625 32.3103 36.7919 32.2836C36.8287 32.2499 36.8491 32.2088 36.8491 32.1424C36.8491 32.0695 36.827 32.0274 36.7917 31.9951L33.9204 28.5502ZM33.9204 28.5502L33.9208 28.5492M33.9204 28.5502L33.9208 28.5492M33.9208 28.5492C33.9431 28.5015 33.9757 28.4691 34.0243 28.4468L33.9201 28.2195L34.024 28.4469C34.0741 28.424 34.1518 28.4062 34.2643 28.4062H36.5154C36.6418 28.4062 36.7 28.4372 36.7259 28.4607C36.7603 28.4921 36.7802 28.531 36.7802 28.5962C36.7802 28.6644 36.7595 28.7037 36.726 28.7344L33.9208 28.5492ZM34.4572 30.0973V29.8473V29.0389V28.7889H34.7072H36.5154H36.5281C36.6457 28.7869 36.701 28.7571 36.726 28.7345L34.4572 30.0973ZM34.4572 30.0973H34.7072M34.4572 30.0973H34.7072M34.7072 30.0973H36.3635C36.4832 30.0973 36.5379 30.1268 36.5623 30.1491L36.7306 29.9642L34.7072 30.0973Z" stroke="black" stroke-width="0.5"/>
<path d="M37.2984 28.278L37.461 28.4679C37.4965 28.4375 37.5642 28.4062 37.6919 28.4062H40.4024C40.5407 28.4062 40.6079 28.44 40.6392 28.4683L40.8069 28.283L40.6389 28.4681C40.6791 28.5045 40.7016 28.5495 40.7016 28.6219C40.7016 28.6941 40.679 28.7378 40.6391 28.773L40.6386 28.7734C40.6062 28.8021 40.5385 28.835 40.4024 28.835H39.5849H39.3349V29.085V32.0304C39.3349 32.1977 39.2941 32.285 39.2536 32.3293C39.2032 32.3837 39.1411 32.4128 39.0499 32.4128C38.9563 32.4128 38.8929 32.3828 38.8423 32.328L38.8423 32.3279C38.8 32.2821 38.7594 32.1946 38.7595 32.0305V32.0304V29.085V28.835H38.5095H37.6919C37.5553 28.835 37.4897 28.8017 37.4593 28.7742L37.2916 28.9597L37.4595 28.7744C37.4212 28.7397 37.3984 28.6955 37.3984 28.6219C37.3984 28.5446 37.4224 28.501 37.4612 28.4677L37.2984 28.278ZM37.2984 28.278C37.199 28.3633 37.1484 28.4789 37.1484 28.6219C37.1484 28.76 37.1967 28.8737 37.2916 28.9597C37.3835 29.0428 37.5181 29.085 37.6919 29.085H38.2595M37.2984 28.278C37.3927 28.1973 37.5251 28.1562 37.6919 28.1562H40.4024C40.5779 28.1562 40.7141 28.199 40.8069 28.283C40.9029 28.37 40.9516 28.484 40.9516 28.6219C40.9516 28.7607 40.9019 28.8747 40.8042 28.9607C40.7109 29.0432 40.5756 29.085 40.4024 29.085H39.8349H39.5849V29.335V32.0304C39.5849 32.2348 39.5352 32.3923 39.4375 32.4987C39.3368 32.6076 39.2066 32.6628 39.0499 32.6628C38.8914 32.6628 38.7596 32.6072 38.6585 32.4974L38.2595 29.085M38.2595 29.085H38.5095V29.335V32.0304L38.2595 29.085Z" stroke="black" stroke-width="0.5"/>
</svg>
