<svg width="116" height="115" viewBox="0 0 116 115" fill="none" xmlns="http://www.w3.org/2000/svg">
<path d="M58 0C26.2945 0 0.5 25.7945 0.5 57.5C0.5 89.2055 26.2945 115 58 115C89.7055 115 115.5 89.2055 115.5 57.5C115.5 25.7945 89.7058 0 58 0ZM58 108.784C43.9139 108.784 31.1366 103.074 21.8592 93.849C18.1543 90.1651 15.0092 85.9194 12.5604 81.2533C8.83062 74.1476 6.7163 66.0668 6.7163 57.5C6.7163 29.2221 29.7221 6.2163 58 6.2163C71.4128 6.2163 83.6372 11.3945 92.7852 19.8541C97.5283 24.2397 101.445 29.5064 104.269 35.3937C107.482 42.091 109.284 49.589 109.284 57.5C109.284 85.7779 86.2779 108.784 58 108.784Z" fill="white"/>
<path d="M38.7709 51.2842C42.204 51.2842 44.9872 48.501 44.9872 45.0679C44.9872 41.6347 42.204 38.8516 38.7709 38.8516C35.3377 38.8516 32.5546 41.6347 32.5546 45.0679C32.5546 48.501 35.3377 51.2842 38.7709 51.2842Z" fill="white"/>
<path d="M77.2324 51.2842C80.6656 51.2842 83.4487 48.501 83.4487 45.0679C83.4487 41.6347 80.6656 38.8516 77.2324 38.8516C73.7992 38.8516 71.0161 41.6347 71.0161 45.0679C71.0161 48.501 73.7992 51.2842 77.2324 51.2842Z" fill="white"/>
<path d="M65.2544 73.429V78.8683H71.4707V73.429H86.6229V78.8683H92.8392V61.7734H86.6229V67.2127H71.4707V61.7734H65.2544V67.2127H50.1022V61.7734H43.8859V67.2127H28.7336V61.7734H22.5173V78.8683H28.7336V73.429H43.8859V78.8683H50.1022V73.429H65.2544Z" fill="white"/>
</svg>
