<svg width="136" height="167" viewBox="0 0 136 167" fill="none" xmlns="http://www.w3.org/2000/svg">
<path d="M131.058 129.031C128.923 125.817 126.195 123.353 123.265 121.45C118.859 118.594 113.994 116.96 109.637 115.767C105.294 114.589 101.375 113.815 99.1691 112.978C96.4928 111.983 93.663 110.694 91.688 109.307C90.7023 108.619 89.942 107.91 89.5013 107.307C89.0561 106.689 88.9351 106.262 88.9305 105.889C88.9305 103.591 88.9305 105.547 88.9305 101.966C94.1245 98.5877 98.2763 93.7855 101.424 87.8316C104.864 81.3319 107.198 73.4758 108.699 64.4167H113.063V54.9052H109.858C109.967 53.2361 110.025 51.5622 110.025 49.8883C110.019 38.2603 107.331 26.5667 100.642 17.5288C97.3014 13.0178 92.9421 9.20392 87.5081 6.51365C83.032 4.29666 77.8009 2.90032 71.8841 2.38758V0H61.7014V2.43389C56.7873 3.00274 52.3719 4.35472 48.481 6.35513C40.5619 10.4163 34.8878 17.0881 31.251 24.8465C27.607 32.6143 25.9379 41.4917 25.9357 50.2804C25.9357 51.8281 25.9963 53.3692 26.0991 54.9055H22.9378V64.417H27.3486C29.4397 75.9892 33.1043 86.1394 39.0305 93.7953C41.3453 96.7791 44.0401 99.3461 47.0755 101.453C47.0755 105.279 47.0755 103.484 47.0755 105.889C47.0755 106.206 46.9496 106.663 46.4551 107.316C45.7369 108.286 44.2427 109.461 42.4687 110.456C40.6992 111.463 38.6639 112.333 36.883 112.962C34.8874 113.673 31.5468 114.352 27.7841 115.307C22.1263 116.765 15.3798 118.883 9.86843 123.497C7.1201 125.8 4.70708 128.752 3.01686 132.465C1.32207 136.181 0.359212 140.629 0.361822 145.898C0.361822 147.175 0.417597 148.5 0.534366 149.875C0.611343 150.756 0.946974 151.474 1.34099 152.067C2.09151 153.167 3.08699 153.987 4.33427 154.829C6.51864 156.274 9.54454 157.687 13.4188 159.074C25.0145 163.21 44.2124 166.995 68.0024 167C87.3307 167 103.644 164.492 115.289 161.34C121.115 159.759 125.765 158.032 129.127 156.304C130.81 155.432 132.172 154.574 133.251 153.632C133.792 153.157 134.265 152.658 134.664 152.066C135.055 151.474 135.394 150.756 135.471 149.875C135.585 148.499 135.641 147.18 135.641 145.907C135.651 138.885 133.914 133.316 131.058 129.031ZM39.2007 84.3301C36.2636 78.7376 34.1281 71.9698 32.692 64.4167H34.3147V54.9052H31.3586C31.2467 53.3712 31.1883 51.8277 31.1883 50.28C31.1792 39.442 33.981 28.5717 39.8162 20.6056C42.7322 16.6145 46.3879 13.3346 50.88 11.0266C54.0341 9.40875 57.6409 8.29912 61.7017 7.75832V9.5115H71.8845V7.64188C77.0227 8.14092 81.4403 9.37157 85.1773 11.2203C92.1662 14.6914 96.9941 20.2096 100.172 26.9865C103.34 33.7516 104.776 41.7689 104.773 49.8883C104.773 51.5599 104.704 53.2361 104.587 54.9052H101.686V64.4167H103.379C101.365 76.0333 97.9006 85.1599 92.828 91.4335C89.9303 95.0259 86.5289 97.7231 82.4586 99.5672C78.3906 101.404 73.6256 102.39 67.991 102.393C62.4007 102.388 57.6705 101.276 53.6002 99.2688C47.5093 96.2566 42.8004 91.1745 39.2007 84.3301ZM22.0894 156.272C16.5269 154.768 12.1513 153.115 9.28164 151.635C7.8504 150.901 6.79882 150.201 6.21628 149.684C5.96676 149.47 5.82683 149.304 5.75703 149.208C5.66831 148.057 5.61482 146.949 5.61482 145.898C5.62199 139.711 7.08585 135.284 9.31459 131.899C10.9931 129.36 13.1425 127.385 15.5901 125.784C19.255 123.383 23.598 121.868 27.7218 120.756C27.7965 120.735 27.8666 120.72 27.9387 120.7L40.6998 159.932C33.5873 158.957 27.2974 157.682 22.0894 156.272ZM44.6256 160.419L31.417 119.821C34.1144 119.177 36.5946 118.623 38.6273 117.914C40.3267 117.312 42.194 116.52 44.0101 115.573L56.4963 161.417C52.3393 161.191 48.3808 160.85 44.6256 160.419ZM49.7217 122.921L47.2017 113.671C48.5002 112.757 49.6917 111.731 50.6402 110.491C51.5936 109.241 52.3259 107.675 52.3259 105.889C52.3259 105.705 52.3259 105.591 52.3259 105.495C52.3259 105.365 52.3259 105.283 52.3259 105.267C52.3259 105.108 52.3259 104.87 52.3259 104.418C56.9275 106.5 62.1404 107.647 67.9919 107.642C73.8435 107.645 79.0606 106.637 83.6811 104.712C83.6811 104.987 83.6811 105.178 83.6811 105.323C83.6811 105.638 83.6811 105.7 83.6811 105.656C83.6811 105.731 83.6811 105.778 83.6811 105.889C83.6766 107.619 84.3501 109.176 85.2709 110.419C86.0263 111.431 86.9467 112.293 87.9611 113.072L86.0729 121.411C82.336 121.914 74.151 122.921 68.3788 122.921C62.3547 122.921 53.3608 122.921 49.7217 122.921ZM80.6989 161.359L91.1687 115.116C93.1642 116.207 95.302 117.137 97.3301 117.897C99.9551 118.869 103.265 119.529 106.888 120.471C106.933 120.482 106.979 120.496 107.026 120.508L92.8006 160.267C88.9889 160.736 84.9395 161.102 80.6989 161.359ZM130.247 149.201L130.021 149.469C129.634 149.861 128.853 150.448 127.755 151.075C123.883 153.311 116.241 156.055 105.983 158.141C103.127 158.727 100.046 159.256 96.7962 159.731L110.48 121.48C114.84 122.814 119.265 124.656 122.747 127.579C124.981 129.444 126.853 131.726 128.205 134.673C129.555 137.622 130.39 141.27 130.39 145.907C130.389 146.952 130.338 148.054 130.247 149.201Z" fill="black"/>
<path d="M62.0811 53.4367C62.0811 48.2519 59.3211 47.231 54.8404 46.5385C48.3597 45.543 41.9348 47.9534 41.3845 52.0612C40.6944 57.2317 42.564 62.3513 46.5599 63.4446C54.1457 65.51 62.0811 59.9921 62.0811 53.4367Z" fill="black"/>
<path d="M81.6026 46.5381C77.1171 47.2306 74.3616 48.2515 74.3616 53.4363C74.3616 59.9917 82.297 65.5096 89.8828 63.4443C93.8784 62.3506 95.748 57.2313 95.0582 52.0609C94.5128 47.9534 88.0879 45.5426 81.6026 46.5381Z" fill="black"/>
<path d="M78.9869 39.9855H56.9058L67.9464 45.8461L78.9869 39.9855Z" fill="black"/>
<path d="M68.8083 66.3747C67.3771 66.3747 66.2205 67.5333 66.2205 68.9625C66.2205 70.3892 67.3767 71.5478 68.8083 71.5478C70.235 71.5478 71.3962 70.3889 71.3962 68.9625C71.3962 67.5333 70.235 66.3747 68.8083 66.3747Z" fill="black"/>
<path d="M61.7352 75.3431C60.4063 75.3431 59.3202 76.425 59.3202 77.7581C59.3202 79.0941 60.4067 80.1711 61.7352 80.1711C63.0686 80.1711 64.1501 79.0941 64.1501 77.7581C64.1505 76.4247 63.0689 75.3431 61.7352 75.3431Z" fill="black"/>
<path d="M61.7352 86.3813C60.4063 86.3813 59.3202 87.4606 59.3202 88.7963C59.3202 90.132 60.4067 91.2113 61.7352 91.2113C63.0686 91.2113 64.1501 90.1317 64.1501 88.7963C64.1505 87.4606 63.0689 86.3813 61.7352 86.3813Z" fill="black"/>
<path d="M76.5704 75.3431C75.237 75.3431 74.1554 76.425 74.1554 77.7581C74.1554 79.0941 75.237 80.1711 76.5704 80.1711C77.9038 80.1711 78.9857 79.0941 78.9857 77.7581C78.9857 76.4247 77.9038 75.3431 76.5704 75.3431Z" fill="black"/>
<path d="M76.5704 86.3813C75.237 86.3813 74.1554 87.4606 74.1554 88.7963C74.1554 90.132 75.237 91.2113 76.5704 91.2113C77.9038 91.2113 78.9857 90.1317 78.9857 88.7963C78.9857 87.4606 77.9038 86.3813 76.5704 86.3813Z" fill="black"/>
<path d="M60.3532 34.6353C61.7844 34.6353 62.9456 33.4813 62.9456 32.0546C62.9456 30.6211 61.7847 29.4622 60.3532 29.4622C58.9265 29.4622 57.7699 30.6211 57.7699 32.0546C57.7702 33.4813 58.9265 34.6353 60.3532 34.6353Z" fill="black"/>
<path d="M49.8837 26.5432C49.8837 27.9699 51.0396 29.1239 52.4666 29.1239C53.8979 29.1239 55.059 27.9699 55.059 26.5432C55.059 25.1097 53.8982 23.9508 52.4666 23.9508C51.0396 23.9511 49.8837 25.1097 49.8837 26.5432Z" fill="black"/>
<path d="M74.1545 34.6353C75.5857 34.6353 76.7423 33.4813 76.7423 32.0546C76.7423 30.6211 75.5861 29.4622 74.1545 29.4622C72.7233 29.4622 71.5667 30.6211 71.5667 32.0546C71.5667 33.4813 72.7229 34.6353 74.1545 34.6353Z" fill="black"/>
<path d="M81.1182 29.4227C82.5494 29.4227 83.706 28.2687 83.706 26.842C83.706 25.4085 82.5497 24.2496 81.1182 24.2496C79.6866 24.2496 78.5306 25.4081 78.5306 26.842C78.531 28.2687 79.6869 29.4227 81.1182 29.4227Z" fill="black"/>
<path d="M50.6765 20.4706C52.1077 20.4706 53.2685 19.3166 53.2685 17.8899C53.2685 16.4564 52.1077 15.2979 50.6765 15.2979C49.2498 15.2979 48.0935 16.4564 48.0935 17.8899C48.0935 19.3166 49.2498 20.4706 50.6765 20.4706Z" fill="black"/>
<path d="M82.3085 19.2771C83.7397 19.2771 84.8963 18.1231 84.8963 16.6964C84.8963 15.2629 83.74 14.104 82.3085 14.104C80.8769 14.104 79.7209 15.2626 79.7209 16.6964C79.7209 18.1231 80.8769 19.2771 82.3085 19.2771Z" fill="black"/>
<path d="M45.1786 81.3786L50.0092 86.8968L56.9051 68.9626L45.1786 81.3786Z" fill="black"/>
<path d="M88.2972 86.8968L93.1275 81.3786L81.3967 68.9626L88.2972 86.8968Z" fill="black"/>
<path d="M122.489 140.825C124.48 140.429 124.079 138.039 122.489 137.442C120.899 136.845 120.102 139.035 118.708 138.636C117.314 138.237 119.305 133.861 117.714 133.663C116.125 133.465 114.866 135.691 115.327 138.438C115.528 139.631 114.134 140.426 112.541 140.825C110.949 141.224 110.352 143.41 112.343 144.406C113.733 145.101 114.331 144.205 114.133 146.991C113.935 149.777 114.928 151.765 116.719 151.367C118.509 150.968 117.117 146.394 117.714 145.599C118.311 144.804 119.106 146.991 120.498 147.189C121.889 147.387 121.493 145.002 120.3 144.007C119.106 143.012 120.498 141.221 122.489 140.825Z" fill="black"/>
<path d="M108.165 144.902C107.34 144.902 106.673 145.569 106.673 146.394C106.673 147.22 107.34 147.886 108.165 147.886C108.99 147.886 109.657 147.22 109.657 146.394C109.657 145.569 108.99 144.902 108.165 144.902Z" fill="black"/>
<path d="M113.684 131.673C114.262 131.673 114.731 131.207 114.731 130.628C114.731 130.053 114.262 129.584 113.684 129.584C113.108 129.584 112.64 130.053 112.64 130.628C112.64 131.207 113.108 131.673 113.684 131.673Z" fill="black"/>
<path d="M92.3465 140.624C91.7428 140.624 91.2532 141.114 91.2532 141.72C91.2532 142.324 91.7428 142.813 92.3465 142.813C92.9525 142.813 93.4421 142.324 93.4421 141.72C93.4421 141.114 92.9525 140.624 92.3465 140.624Z" fill="black"/>
<path d="M97.8212 130.889C96.8398 130.889 96.0426 131.684 96.0426 132.668C96.0426 133.652 96.8398 134.447 97.8212 134.447C98.8027 134.447 99.5998 133.652 99.5998 132.668C99.5998 131.684 98.8027 130.889 97.8212 130.889Z" fill="black"/>
<path d="M123.98 149.379C124.475 149.379 124.876 148.978 124.876 148.483C124.876 147.989 124.475 147.588 123.98 147.588C123.486 147.588 123.085 147.989 123.085 148.483C123.085 148.978 123.486 149.379 123.98 149.379Z" fill="black"/>
</svg>
