<svg width="60" height="60" viewBox="0 0 60 60" fill="none" xmlns="http://www.w3.org/2000/svg">
<circle cx="30" cy="30" r="29.5" stroke="black"/>
<path d="M20.2164 28.2948V27.7948H19.7164H16.9919C16.7202 27.7948 16.5 27.5746 16.5 27.3029V17.9918C16.5 17.7204 16.7201 17.5001 16.9919 17.5C16.9919 17.5 16.9919 17.5 16.992 17.5H24.4253C24.697 17.5 24.9172 17.7202 24.9172 17.9918C24.9172 20.8004 27.1956 23.0869 29.9999 23.0869C32.8041 23.0869 35.0826 20.8005 35.0826 17.9919C35.0826 17.7202 35.3027 17.5001 35.5744 17.5001H43.008C43.2797 17.5001 43.4999 17.7203 43.5 17.9918C43.5 17.9918 43.5 17.9918 43.5 17.9919V27.3029C43.5 27.5745 43.2797 27.7948 43.0081 27.7948H40.2833H39.7833V28.2948V42.1999C39.7833 42.4715 39.5631 42.6918 39.2914 42.6918H20.7083C20.4367 42.6918 20.2164 42.4715 20.2164 42.1999V28.2948ZM30.8057 36.9735L30.8059 36.9734C31.1779 36.7345 32.2891 35.9905 33.313 34.9908C33.8251 34.4909 34.328 33.9149 34.7054 33.2943C35.0815 32.6759 35.3512 31.9831 35.3512 31.2593C35.3512 29.3518 33.825 27.7858 31.9297 27.7858C31.2138 27.7858 30.5489 28.0105 30 28.3921C29.4511 28.0105 28.7862 27.7858 28.0702 27.7858C26.1749 27.7858 24.6487 29.3519 24.6487 31.2594C24.6487 31.9833 24.9184 32.6761 25.2945 33.2945C25.6719 33.9151 26.1748 34.4911 26.687 34.991C27.711 35.9906 28.8222 36.7346 29.1942 36.9734L29.1945 36.9736C29.4398 37.1308 29.7199 37.2097 30 37.2097C30.2801 37.2097 30.5604 37.1308 30.8057 36.9735Z" stroke="black"/>
<path d="M31.9289 30.2699C31.4118 30.2699 30.9912 30.714 30.9912 31.2598C30.9912 31.8075 30.547 32.2516 29.9994 32.2516C29.4516 32.2516 29.0075 31.8074 29.0075 31.2598C29.0075 30.714 28.5868 30.2699 28.0696 30.2699C27.5524 30.2699 27.1316 30.714 27.1316 31.2599C27.1316 32.1167 28.6901 33.5753 29.9994 34.5177C31.3086 33.5752 32.8669 32.1164 32.8669 31.2598C32.8668 30.714 32.446 30.2699 31.9289 30.2699Z" fill="black"/>
</svg>
