<svg width="60" height="60" viewBox="0 0 60 60" fill="none" xmlns="http://www.w3.org/2000/svg">
<circle cx="30" cy="30" r="29.5" stroke="black"/>
<path d="M47.4349 29.9414L47.4349 29.9413C45.092 26.0658 41.4908 23.0176 37.291 21.3563C34.8605 20.3948 32.2922 19.9075 29.6595 19.9075C27.0269 19.9075 24.4586 20.3948 22.0281 21.3563C17.8282 23.0176 14.227 26.0658 11.8841 29.9413L11.8841 29.9414C11.8378 30.018 11.7381 30.0425 11.6616 29.9963L11.6615 29.9962C11.5848 29.9498 11.5603 29.8501 11.6066 29.7737L11.6066 29.7736C13.9856 25.8383 17.6455 22.7411 21.9088 21.0547L21.9088 21.0547C24.377 20.0783 26.9841 19.5831 29.6595 19.5831C32.335 19.5831 34.9421 20.0783 37.4103 21.0547L37.6246 20.5132L37.4104 21.0547C41.6735 22.7411 45.3335 25.8382 47.7125 29.7736C47.7589 29.8503 47.7342 29.9499 47.6577 29.9962L47.6574 29.9963C47.6306 30.0126 47.6025 30.0197 47.5744 30.0197C47.5178 30.0197 47.465 29.9912 47.4349 29.9414Z" stroke="black" stroke-width="1.16622"/>
<path d="M44.9403 31.0336C41.7404 36.1006 36.0919 39.4637 29.6586 39.4637C23.2252 39.4637 17.5768 36.1006 14.3768 31.0336C16.4108 27.8135 19.434 25.2805 23.0188 23.8625L22.8043 23.3203L23.0188 23.8625C25.0738 23.0496 27.313 22.6026 29.6586 22.6026C32.0041 22.6026 34.2434 23.0496 36.2984 23.8625C39.8831 25.2805 42.9064 27.8135 44.9403 31.0336Z" stroke="black" stroke-width="1.16622"/>
<path d="M35.2619 29.5065C35.2619 32.601 32.7533 35.1096 29.6588 35.1096C26.5644 35.1096 24.0558 32.601 24.0558 29.5065C24.0558 26.412 26.5644 23.9034 29.6588 23.9034C32.7533 23.9034 35.2619 26.412 35.2619 29.5065Z" stroke="black" stroke-width="1.16622"/>
<path d="M32.0193 29.5083C32.0193 30.812 30.9624 31.8689 29.6586 31.8689C28.3549 31.8689 27.298 30.812 27.298 29.5083C27.298 28.2045 28.3549 27.1476 29.6586 27.1476C30.9624 27.1476 32.0193 28.2045 32.0193 29.5083Z" stroke="black" stroke-width="1.16622"/>
</svg>
